# xmcd CD database file
#
# Track frame offsets:
#	150
#	18412
#	38900
#	57795
#	76297
#	97467
#	120965
#	143330
#	170262
#	189587
#	214065
#	234867
#	254935
#	272065
#	311725
#
# Disc length: 4795 seconds
#
# Revision: 8
# Processed by: cddbd v1.5.2PL0 Copyright (c) Steve Scherf et al.
# Submitted via: CDex 1.70beta3
#
DISCID=cd12b90f
DTITLE=DA PUMP - Da Best of Da Pump 2 plus 4
DYEAR=2006
DGENRE=Pop
TTITLE0=CORAZON
TTITLE1=Steppin' and Shakin'
TTITLE2=All My Love To You
TTITLE3=RAIN OF PAIN
TTITLE4=Night Walk
TTITLE5=Circle of Life
TTITLE6=GET ON THE DANCE FLOOR
TTITLE7=胸焦がす...
TTITLE8=Like This
TTITLE9=Bright! our future
TTITLE10=Feelin' Good -It's PARADISE- [Dub Scratch Remix Version]
TTITLE11=We can't stop the music [Native Okinawan Remix]
TTITLE12=Com'on! Be My Girl! [Studio Live Version 2006]
TTITLE13=Bambism of Asia (A Hundred Birds remix)
TTITLE14=DATA
EXTD=YEAR: 2006
EXTT0=
EXTT1=
EXTT2=
EXTT3=
EXTT4=
EXTT5=
EXTT6=
EXTT7=
EXTT8=
EXTT9=
EXTT10=
EXTT11=
EXTT12=
EXTT13=
EXTT14=
PLAYORDER=
